<svg width="60" height="60" viewBox="0 0 60 60" fill="none" xmlns="http://www.w3.org/2000/svg">
<rect width="60" height="60" fill="#FEFEFE"/>
<path d="M12.1379 29.284C12.1379 25.3627 12.7952 22.3027 14.1099 20.104C15.4472 17.8827 17.7365 16.772 20.9779 16.772C24.2192 16.772 26.4972 17.8827 27.8119 20.104C29.1492 22.3027 29.8179 25.3627 29.8179 29.284C29.8179 33.2507 29.1492 36.356 27.8119 38.6C26.4972 40.8213 24.2192 41.932 20.9779 41.932C17.7365 41.932 15.4472 40.8213 14.1099 38.6C12.7952 36.356 12.1379 33.2507 12.1379 29.284ZM26.0099 29.284C26.0099 27.448 25.8852 25.8953 25.6359 24.626C25.4092 23.3567 24.9332 22.3253 24.2079 21.532C23.4825 20.716 22.4059 20.308 20.9779 20.308C19.5499 20.308 18.4732 20.716 17.7479 21.532C17.0225 22.3253 16.5352 23.3567 16.2859 24.626C16.0592 25.8953 15.9459 27.448 15.9459 29.284C15.9459 31.188 16.0592 32.786 16.2859 34.078C16.5125 35.37 16.9885 36.4127 17.7139 37.206C18.4619 37.9993 19.5499 38.396 20.9779 38.396C22.4059 38.396 23.4825 37.9993 24.2079 37.206C24.9559 36.4127 25.4432 35.37 25.6699 34.078C25.8965 32.786 26.0099 31.188 26.0099 29.284ZM35.4611 36.73C37.6371 34.8487 39.3484 33.3073 40.5951 32.106C41.8644 30.882 42.9184 29.6127 43.7571 28.298C44.5958 26.9833 45.0151 25.6687 45.0151 24.354C45.0151 22.994 44.6864 21.9287 44.0291 21.158C43.3944 20.3873 42.3858 20.002 41.0031 20.002C39.6658 20.002 38.6231 20.4327 37.8751 21.294C37.1498 22.1327 36.7644 23.266 36.7191 24.694H32.9791C33.0471 22.11 33.8178 20.138 35.2911 18.778C36.7871 17.3953 38.6798 16.704 40.9691 16.704C43.4398 16.704 45.3664 17.384 46.7491 18.744C48.1544 20.104 48.8571 21.9173 48.8571 24.184C48.8571 25.816 48.4378 27.3913 47.5991 28.91C46.7831 30.406 45.7971 31.7547 44.6411 32.956C43.5078 34.1347 42.0571 35.506 40.2891 37.07L38.7591 38.43H49.5371V41.66H33.0131V38.838L35.4611 36.73Z" fill="#141718"/>
</svg>
