<svg width="60" height="60" viewBox="0 0 60 60" fill="none" xmlns="http://www.w3.org/2000/svg">
<rect width="60" height="60" fill="#FEFEFE"/>
<path d="M16.5751 20.75V17.214H23.6471V42H19.7371V20.75H16.5751ZM30.5138 36.73C32.6898 34.8487 34.4012 33.3073 35.6478 32.106C36.9172 30.882 37.9712 29.6127 38.8098 28.298C39.6485 26.9833 40.0678 25.6687 40.0678 24.354C40.0678 22.994 39.7392 21.9287 39.0818 21.158C38.4472 20.3873 37.4385 20.002 36.0558 20.002C34.7185 20.002 33.6758 20.4327 32.9278 21.294C32.2025 22.1327 31.8172 23.266 31.7718 24.694H28.0318C28.0998 22.11 28.8705 20.138 30.3438 18.778C31.8398 17.3953 33.7325 16.704 36.0218 16.704C38.4925 16.704 40.4192 17.384 41.8018 18.744C43.2072 20.104 43.9098 21.9173 43.9098 24.184C43.9098 25.816 43.4905 27.3913 42.6518 28.91C41.8358 30.406 40.8498 31.7547 39.6938 32.956C38.5605 34.1347 37.1098 35.506 35.3418 37.07L33.8118 38.43H44.5898V41.66H28.0658V38.838L30.5138 36.73Z" fill="#141718"/>
</svg>
