<svg width="60" height="60" viewBox="0 0 60 60" fill="none" xmlns="http://www.w3.org/2000/svg">
<rect width="60" height="60" fill="#FEFEFE"/>
<path d="M9.99974 36.832V33.908L21.4237 17.52H26.1157V33.466H29.2777V36.832H26.1157V42H22.3077V36.832H9.99974ZM22.4777 21.464L14.4537 33.466H22.4777V21.464ZM47.8694 20.546H36.4794V27.312C36.9554 26.6773 37.6581 26.1447 38.5874 25.714C39.5394 25.2833 40.5481 25.068 41.6134 25.068C43.5174 25.068 45.0587 25.476 46.2374 26.292C47.4387 27.108 48.2887 28.1393 48.7874 29.386C49.3087 30.6327 49.5694 31.9473 49.5694 33.33C49.5694 35.0073 49.2407 36.5033 48.5834 37.818C47.9487 39.11 46.9854 40.13 45.6934 40.878C44.4241 41.626 42.8601 42 41.0014 42C38.5307 42 36.5474 41.388 35.0514 40.164C33.5554 38.94 32.6601 37.3193 32.3654 35.302H36.1394C36.3887 36.3673 36.9441 37.2173 37.8054 37.852C38.6667 38.464 39.7434 38.77 41.0354 38.77C42.6447 38.77 43.8461 38.2827 44.6394 37.308C45.4554 36.3333 45.8634 35.0413 45.8634 33.432C45.8634 31.8 45.4554 30.5533 44.6394 29.692C43.8234 28.808 42.6221 28.366 41.0354 28.366C39.9247 28.366 38.9841 28.6493 38.2134 29.216C37.4654 29.76 36.9214 30.508 36.5814 31.46H32.9094V17.146H47.8694V20.546Z" fill="#141718"/>
</svg>
