<svg width="60" height="60" viewBox="0 0 60 60" fill="none" xmlns="http://www.w3.org/2000/svg">
<rect width="60" height="60" fill="#FEFEFE"/>
<path d="M11.092 29.284C11.092 25.3627 11.7493 22.3027 13.064 20.104C14.4013 17.8827 16.6906 16.772 19.932 16.772C23.1733 16.772 25.4513 17.8827 26.766 20.104C28.1033 22.3027 28.772 25.3627 28.772 29.284C28.772 33.2507 28.1033 36.356 26.766 38.6C25.4513 40.8213 23.1733 41.932 19.932 41.932C16.6906 41.932 14.4013 40.8213 13.064 38.6C11.7493 36.356 11.092 33.2507 11.092 29.284ZM24.964 29.284C24.964 27.448 24.8393 25.8953 24.59 24.626C24.3633 23.3567 23.8873 22.3253 23.162 21.532C22.4366 20.716 21.36 20.308 19.932 20.308C18.504 20.308 17.4273 20.716 16.702 21.532C15.9766 22.3253 15.4893 23.3567 15.24 24.626C15.0133 25.8953 14.9 27.448 14.9 29.284C14.9 31.188 15.0133 32.786 15.24 34.078C15.4666 35.37 15.9426 36.4127 16.668 37.206C17.416 37.9993 18.504 38.396 19.932 38.396C21.36 38.396 22.4366 37.9993 23.162 37.206C23.91 36.4127 24.3973 35.37 24.624 34.078C24.8506 32.786 24.964 31.188 24.964 29.284ZM48.2532 20.546H36.8632V27.312C37.3392 26.6773 38.0419 26.1447 38.9712 25.714C39.9232 25.2833 40.9319 25.068 41.9972 25.068C43.9012 25.068 45.4425 25.476 46.6212 26.292C47.8225 27.108 48.6725 28.1393 49.1712 29.386C49.6925 30.6327 49.9532 31.9473 49.9532 33.33C49.9532 35.0073 49.6245 36.5033 48.9672 37.818C48.3325 39.11 47.3692 40.13 46.0772 40.878C44.8079 41.626 43.2439 42 41.3852 42C38.9145 42 36.9312 41.388 35.4352 40.164C33.9392 38.94 33.0439 37.3193 32.7492 35.302H36.5232C36.7725 36.3673 37.3279 37.2173 38.1892 37.852C39.0505 38.464 40.1272 38.77 41.4192 38.77C43.0285 38.77 44.2299 38.2827 45.0232 37.308C45.8392 36.3333 46.2472 35.0413 46.2472 33.432C46.2472 31.8 45.8392 30.5533 45.0232 29.692C44.2072 28.808 43.0059 28.366 41.4192 28.366C40.3085 28.366 39.3679 28.6493 38.5972 29.216C37.8492 29.76 37.3052 30.508 36.9652 31.46H33.2932V17.146H48.2532V20.546Z" fill="#141718"/>
</svg>
